<?xml version="1.0"?>
<svg xmlns="http://www.w3.org/2000/svg" xmlns:xlink="http://www.w3.org/1999/xlink" id="body" xml:space="preserve" width="600" height="600">

<marker id="pf1" viewBox="0 0 20 10" refX="30" refY="5"
markerUnits="strokeWidth"
markerWidth="20" markerHeight="20"
orient="auto">
<path d="M 0,0 L 20,5 L 0,10 z" />
</marker>

<marker id="pf2" viewBox="0 0 20 10" refX="30" refY="5"
markerUnits="strokeWidth"
markerWidth="20" markerHeight="20"
orient="auto">
<path d="M 0,0 L 20,5 L 0,10 z" fill="red" stroke="red" />
</marker>

<line x1="85" y1="505" x2="175" y2="415" style="stroke:grey;stroke-width:2;" marker-end="url(#pf1)" />
<line x1="85" y1="505" x2="80" y2="235" style="stroke:grey;stroke-width:2;" marker-end="url(#pf1)" />
<line x1="115" y1="335" x2="80" y2="235" style="stroke:grey;stroke-width:2;" marker-end="url(#pf1)" />
<line x1="115" y1="335" x2="175" y2="255" style="stroke:grey;stroke-width:2;" marker-end="url(#pf1)" />
<line x1="115" y1="335" x2="470" y2="365" style="stroke:grey;stroke-width:2;" marker-end="url(#pf1)" />
<line x1="175" y1="415" x2="115" y2="335" style="stroke:grey;stroke-width:2;" marker-end="url(#pf1)" />
<line x1="175" y1="415" x2="470" y2="365" style="stroke:grey;stroke-width:2;" marker-end="url(#pf1)" />
<line x1="80" y1="235" x2="235" y2="15" style="stroke:grey;stroke-width:2;" marker-end="url(#pf1)" />
<line x1="295" y1="210" x2="470" y2="365" style="stroke:grey;stroke-width:2;" marker-end="url(#pf1)" />
<line x1="520" y1="60" x2="470" y2="365" style="stroke:grey;stroke-width:2;" marker-end="url(#pf1)" />
<line x1="520" y1="60" x2="290" y2="125" style="stroke:grey;stroke-width:2;" marker-end="url(#pf1)" />
<line x1="290" y1="125" x2="80" y2="235" style="stroke:grey;stroke-width:2;" marker-end="url(#pf1)" />
<line x1="290" y1="125" x2="295" y2="210" style="stroke:grey;stroke-width:2;" marker-end="url(#pf1)" />
<line x1="175" y1="255" x2="295" y2="210" style="stroke:grey;stroke-width:2;" marker-end="url(#pf1)" />
<line x1="235" y1="15" x2="290" y2="125" style="stroke:grey;stroke-width:2;" marker-end="url(#pf1)" />
<circle cx="85" cy="505" r="10" style="fill:white;stroke:rgb(0,0,255);stroke-width:1"/>
<text x="78" y="510" style="font-size:14; font-family:Arial">0</text>
<circle cx="115" cy="335" r="10" style="fill:white;stroke:rgb(0,0,255);stroke-width:1"/>
<text x="108" y="340" style="font-size:14; font-family:Arial">1</text>
<circle cx="175" cy="415" r="10" style="fill:white;stroke:rgb(0,0,255);stroke-width:1"/>
<text x="168" y="420" style="font-size:14; font-family:Arial">2</text>
<circle cx="80" cy="235" r="10" style="fill:white;stroke:rgb(0,0,255);stroke-width:1"/>
<text x="73" y="240" style="font-size:14; font-family:Arial">3</text>
<circle cx="295" cy="210" r="10" style="fill:white;stroke:rgb(0,0,255);stroke-width:1"/>
<text x="288" y="215" style="font-size:14; font-family:Arial">4</text>
<circle cx="470" cy="365" r="10" style="fill:white;stroke:rgb(0,0,255);stroke-width:1"/>
<text x="463" y="370" style="font-size:14; font-family:Arial">5</text>
<circle cx="520" cy="60" r="10" style="fill:white;stroke:rgb(0,0,255);stroke-width:1"/>
<text x="513" y="65" style="font-size:14; font-family:Arial">6</text>
<circle cx="290" cy="125" r="10" style="fill:white;stroke:rgb(0,0,255);stroke-width:1"/>
<text x="283" y="130" style="font-size:14; font-family:Arial">7</text>
<circle cx="175" cy="255" r="10" style="fill:white;stroke:rgb(0,0,255);stroke-width:1"/>
<text x="168" y="260" style="font-size:14; font-family:Arial">8</text>
<circle cx="235" cy="15" r="10" style="fill:white;stroke:rgb(0,0,255);stroke-width:1"/>
<text x="228" y="20" style="font-size:14; font-family:Arial">9</text>

</svg>
